# xmcd
#
# Track frame offsets: 
#        150
#        29242
#        45479
#        59789
#        75973
#        95119
#        109104
#        130953
#        142007
#        190455
#        211395
#        221670
#        238873
#
# Disc length: 3284 seconds
#
# Revision: 0
# Processed by: cddbd v1.5.2PL0 Copyright (c) Steve Scherf et al.
# Submitted via: ExactAudioCopyFreeDBPlugin 1.0
#
DISCID=ce0cd20d
DTITLE=The Boogiesoulmates - Santa's got the Blues
DYEAR=2015
DGENRE=Blues
TTITLE0=The First Noel
TTITLE1=Back Door Santa
TTITLE2=Boogie Woogie Santa Claus
TTITLE3=Go Tell It On The Mountain
TTITLE4=Christmas Prayer
TTITLE5=White Christmas
TTITLE6=Christmas Boogie
TTITLE7=Rocking Around The Christmas Tree
TTITLE8=Santa Claus Got The Blues
TTITLE9=Christmas Blues
TTITLE10=Please Come Home For Chritsmas
TTITLE11=Merry Christmas Baby
TTITLE12=Please Come Home For Chritsmas (Outro)
EXTD=
EXTT0=
EXTT1=
EXTT2=
EXTT3=
EXTT4=
EXTT5=
EXTT6=
EXTT7=
EXTT8=
EXTT9=
EXTT10=
EXTT11=
EXTT12=
PLAYORDER=
